<?xml version="1.0" encoding="UTF-8" standalone="no"?>
<!DOCTYPE svg PUBLIC "-//W3C//DTD SVG 1.1//EN" "http://www.w3.org/Graphics/SVG/1.1/DTD/svg11.dtd">
<svg version="1.1" xmlns="http://www.w3.org/2000/svg" xmlns:xlink="http://www.w3.org/1999/xlink" preserveAspectRatio="xMidYMid meet" viewBox="0 0 100 100" width="100" height="100"><defs><path d="M90.14 88.74C44.29 66.39 15.64 52.43 4.18 46.84C3.42 46.47 3.42 45.39 4.18 45.02C15.64 39.44 44.29 25.47 90.14 3.13C66.35 24.77 51.48 38.3 45.54 43.71C43.68 45.4 43.72 48.32 45.61 49.97C51.54 55.14 66.39 68.06 90.14 88.74Z" id="c1o5DgZOxz"></path><radialGradient id="gradiente1je8vhrq" gradientUnits="userSpaceOnUse" cx="27.63" cy="39.15" dx="77.59" dy="83.82" r="67.02"><stop style="stop-color: #a19c9c;stop-opacity: 1" offset="0%"></stop><stop style="stop-color: #626262;stop-opacity: 1" offset="100%"></stop></radialGradient></defs><g><g><g><g><filter id="shadow2593756" x="-8.39" y="-8.87" width="112.53" height="111.61" filterUnits="userSpaceOnUse" primitiveUnits="userSpaceOnUse"><feFlood></feFlood><feComposite in2="SourceAlpha" operator="in"></feComposite><feGaussianBlur stdDeviation="1.41"></feGaussianBlur><feOffset dx="2" dy="2" result="afterOffset"></feOffset><feFlood flood-color="#000000" flood-opacity="1"></feFlood><feComposite in2="afterOffset" operator="in"></feComposite><feMorphology operator="dilate" radius="1"></feMorphology><feComposite in2="SourceAlpha" operator="out"></feComposite></filter><path d="M90.14 88.74C44.29 66.39 15.64 52.43 4.18 46.84C3.42 46.47 3.42 45.39 4.18 45.02C15.64 39.44 44.29 25.47 90.14 3.13C66.35 24.77 51.48 38.3 45.54 43.71C43.68 45.4 43.72 48.32 45.61 49.97C51.54 55.14 66.39 68.06 90.14 88.74Z" id="c32ztYlCkn" fill="white" fill-opacity="1" filter="url(#shadow2593756)"></path></g><use xlink:href="#c1o5DgZOxz" opacity="1" fill="url(#gradiente1je8vhrq)"></use></g></g></g></svg>