<?xml version="1.0" encoding="UTF-8" standalone="no"?>
<!DOCTYPE svg PUBLIC "-//W3C//DTD SVG 1.1//EN" "http://www.w3.org/Graphics/SVG/1.1/DTD/svg11.dtd">
<svg version="1.1" xmlns="http://www.w3.org/2000/svg" xmlns:xlink="http://www.w3.org/1999/xlink" preserveAspectRatio="xMidYMid meet" viewBox="0 0 400 400" width="400" height="400"><defs><path d="M25 375L25 25L375 25L375 375L25 375ZM75 325L325 325L325 75L75 75L75 325Z" id="cinylIAOC"></path><path d="M211.69 250.89L211.7 250.9L177.55 294.27L114.3 213.94L148.45 170.57L177.54 207.53L264.34 97.29L298.49 140.66L211.69 250.89Z" id="eA7Wyg7zW"></path></defs><g><g><g><use xlink:href="#cinylIAOC" opacity="1" fill="#000000" fill-opacity="0.2"></use></g><g><g><filter id="shadow1010767" x="48.3" y="31.29" width="336.19" height="348.98" filterUnits="userSpaceOnUse" primitiveUnits="userSpaceOnUse"><feFlood></feFlood><feComposite in2="SourceAlpha" operator="in"></feComposite><feGaussianBlur stdDeviation="4.47"></feGaussianBlur><feOffset dx="20" dy="20" result="afterOffset"></feOffset><feFlood flood-color="#000000" flood-opacity="0.2"></feFlood><feComposite in2="afterOffset" operator="in"></feComposite><feMorphology operator="dilate" radius="1"></feMorphology><feComposite in2="SourceAlpha" operator="out"></feComposite></filter><path d="M211.69 250.89L211.7 250.9L177.55 294.27L114.3 213.94L148.45 170.57L177.54 207.53L264.34 97.29L298.49 140.66L211.69 250.89Z" id="a6iWVOqib" fill="white" fill-opacity="1" filter="url(#shadow1010767)"></path></g><use xlink:href="#eA7Wyg7zW" opacity="1" fill="#000000" fill-opacity="0.5"></use></g></g></g></svg>