<?xml version="1.0" encoding="UTF-8" standalone="no"?>
<!DOCTYPE svg PUBLIC "-//W3C//DTD SVG 1.1//EN" "http://www.w3.org/Graphics/SVG/1.1/DTD/svg11.dtd">
<svg version="1.1" xmlns="http://www.w3.org/2000/svg" xmlns:xlink="http://www.w3.org/1999/xlink" preserveAspectRatio="xMidYMid meet" viewBox="0 0 100 100" width="100" height="100"><defs><path d="M95.71 6.84C60.81 52.55 38.99 81.12 30.27 92.55C28.8 94.48 25.78 94.06 24.9 91.8C21.81 83.94 14.1 64.29 1.77 32.86C11.04 43.46 16.84 50.09 19.15 52.74C24.6 58.97 34.04 59.65 40.32 54.27C47.71 47.95 66.17 32.14 95.71 6.84Z" id="a20jX3TMl"></path><radialGradient id="gradientb4mHMupfGB" gradientUnits="userSpaceOnUse" cx="31.25" cy="29.02" dx="31.25" dy="116.21" r="87.19"><stop style="stop-color: #a19c9c;stop-opacity: 1" offset="0%"></stop><stop style="stop-color: #000000;stop-opacity: 1" offset="100%"></stop></radialGradient></defs><g><g><g><g><filter id="shadow3437697" x="-10.23" y="-5.16" width="119.95" height="112.94" filterUnits="userSpaceOnUse" primitiveUnits="userSpaceOnUse"><feFlood></feFlood><feComposite in2="SourceAlpha" operator="in"></feComposite><feGaussianBlur stdDeviation="1.41"></feGaussianBlur><feOffset dx="2" dy="2" result="afterOffset"></feOffset><feFlood flood-color="#000000" flood-opacity="1"></feFlood><feComposite in2="afterOffset" operator="in"></feComposite><feMorphology operator="dilate" radius="1"></feMorphology><feComposite in2="SourceAlpha" operator="out"></feComposite></filter><path d="M95.71 6.84C60.81 52.55 38.99 81.12 30.27 92.55C28.8 94.48 25.78 94.06 24.9 91.8C21.81 83.94 14.1 64.29 1.77 32.86C11.04 43.46 16.84 50.09 19.15 52.74C24.6 58.97 34.04 59.65 40.32 54.27C47.71 47.95 66.17 32.14 95.71 6.84Z" id="cSI9EeLd3" fill="white" fill-opacity="1" filter="url(#shadow3437697)"></path></g><use xlink:href="#a20jX3TMl" opacity="1" fill="url(#gradientb4mHMupfGB)"></use></g></g></g></svg>