<?xml version="1.0" encoding="UTF-8" standalone="no"?>
<!DOCTYPE svg PUBLIC "-//W3C//DTD SVG 1.1//EN" "http://www.w3.org/Graphics/SVG/1.1/DTD/svg11.dtd">
<svg version="1.1" xmlns="http://www.w3.org/2000/svg" xmlns:xlink="http://www.w3.org/1999/xlink" preserveAspectRatio="xMidYMid meet" viewBox="0 0 400 400" width="400" height="400"><defs><path d="M63.23 365.34C62.5 338.69 62.04 322.03 61.86 315.37C61.8 313.18 62.59 311.05 64.07 309.42C117.92 250.17 271.32 81.37 323.71 23.72C329.18 17.71 338.3 16.78 344.86 21.58C347.04 23.18 352.5 27.16 361.22 33.54" id="cp0IRw3kP"></path><path d="M63.49 365.53C84.73 361.96 98 359.73 103.31 358.84C115.19 356.84 126.03 350.84 134.03 341.83C185.1 284.29 329.88 121.17 381.93 62.52C385.93 58.02 385.18 51.06 380.32 47.51C377.81 45.67 371.53 41.08 361.48 33.73" id="cbZU4ag3Z"></path><path d="M120.18 353.88L63.08 312.13" id="b4bG09QO3u"></path><path d="M78.06 322.73L347.08 23.2" id="b5atGRot8"></path><path d="M99.97 338.75L368.99 39.22" id="aXt2Rrytz"></path><path d="M374.05 42.92L359.93 32.59L345.89 22.33" id="a5wPQLvMD"></path><path d="M67.93 364.79L62.99 365.83L63.26 361.38" id="agQVcm9CW"></path></defs><g><g><g><g><g><g><g><g><g><filter id="shadow9255818" x="11.86" y="-31.48" width="419.37" height="466.82" filterUnits="userSpaceOnUse" primitiveUnits="userSpaceOnUse"><feFlood></feFlood><feComposite in2="SourceAlpha" operator="in"></feComposite><feGaussianBlur stdDeviation="3.16"></feGaussianBlur><feOffset dx="20" dy="20" result="afterOffset"></feOffset><feFlood flood-color="#000000" flood-opacity="0.67"></feFlood><feComposite in2="afterOffset" operator="in"></feComposite><feMorphology operator="dilate" radius="5"></feMorphology><feComposite in2="SourceAlpha" operator="out"></feComposite></filter><path d="M63.23 365.34C62.5 338.69 62.04 322.03 61.86 315.37C61.8 313.18 62.59 311.05 64.07 309.42C117.92 250.17 271.32 81.37 323.71 23.72C329.18 17.71 338.3 16.78 344.86 21.58C347.04 23.18 352.5 27.16 361.22 33.54" id="b7OvgZTGZ" fill="none" stroke="white" filter="url(#shadow9255818)"></path></g><g><use xlink:href="#cp0IRw3kP" opacity="1" fill-opacity="0" stroke="#000000" stroke-width="10" stroke-opacity="1"></use></g></g><g><g><filter id="shadow4173890" x="13.49" y="-16.27" width="441.02" height="451.8" filterUnits="userSpaceOnUse" primitiveUnits="userSpaceOnUse"><feFlood></feFlood><feComposite in2="SourceAlpha" operator="in"></feComposite><feGaussianBlur stdDeviation="3.16"></feGaussianBlur><feOffset dx="20" dy="20" result="afterOffset"></feOffset><feFlood flood-color="#000000" flood-opacity="0.67"></feFlood><feComposite in2="afterOffset" operator="in"></feComposite><feMorphology operator="dilate" radius="5"></feMorphology><feComposite in2="SourceAlpha" operator="out"></feComposite></filter><path d="M63.49 365.53C84.73 361.96 98 359.73 103.31 358.84C115.19 356.84 126.03 350.84 134.03 341.83C185.1 284.29 329.88 121.17 381.93 62.52C385.93 58.02 385.18 51.06 380.32 47.51C377.81 45.67 371.53 41.08 361.48 33.73" id="a1WMlTYLl8" fill="none" stroke="white" filter="url(#shadow4173890)"></path></g><g><use xlink:href="#cbZU4ag3Z" opacity="1" fill-opacity="0" stroke="#000000" stroke-width="10" stroke-opacity="1"></use></g></g></g><g><g><filter id="shadow15447242" x="13.08" y="262.13" width="177.1" height="161.75" filterUnits="userSpaceOnUse" primitiveUnits="userSpaceOnUse"><feFlood></feFlood><feComposite in2="SourceAlpha" operator="in"></feComposite><feGaussianBlur stdDeviation="3.16"></feGaussianBlur><feOffset dx="20" dy="20" result="afterOffset"></feOffset><feFlood flood-color="#000000" flood-opacity="0.67"></feFlood><feComposite in2="afterOffset" operator="in"></feComposite><feMorphology operator="dilate" radius="5"></feMorphology><feComposite in2="SourceAlpha" operator="out"></feComposite></filter><path d="M120.18 353.88L63.08 312.13" id="b2ZdfA3Pbp" fill="none" stroke="white" filter="url(#shadow15447242)"></path></g><g><use xlink:href="#b4bG09QO3u" opacity="1" fill-opacity="0" stroke="#000000" stroke-width="10" stroke-opacity="1"></use></g></g></g><g><g><filter id="shadow1774937" x="28.06" y="-26.8" width="389.02" height="419.53" filterUnits="userSpaceOnUse" primitiveUnits="userSpaceOnUse"><feFlood></feFlood><feComposite in2="SourceAlpha" operator="in"></feComposite><feGaussianBlur stdDeviation="3.16"></feGaussianBlur><feOffset dx="20" dy="20" result="afterOffset"></feOffset><feFlood flood-color="#000000" flood-opacity="0.67"></feFlood><feComposite in2="afterOffset" operator="in"></feComposite><feMorphology operator="dilate" radius="5"></feMorphology><feComposite in2="SourceAlpha" operator="out"></feComposite></filter><path d="M78.06 322.73L347.08 23.2" id="bkTYTkNoH" fill="none" stroke="white" filter="url(#shadow1774937)"></path></g><g><use xlink:href="#b5atGRot8" opacity="1" fill-opacity="0" stroke="#000000" stroke-width="10" stroke-opacity="1"></use></g></g><g><g><filter id="shadow3325994" x="49.97" y="-10.78" width="389.02" height="419.53" filterUnits="userSpaceOnUse" primitiveUnits="userSpaceOnUse"><feFlood></feFlood><feComposite in2="SourceAlpha" operator="in"></feComposite><feGaussianBlur stdDeviation="3.16"></feGaussianBlur><feOffset dx="20" dy="20" result="afterOffset"></feOffset><feFlood flood-color="#000000" flood-opacity="0.67"></feFlood><feComposite in2="afterOffset" operator="in"></feComposite><feMorphology operator="dilate" radius="5"></feMorphology><feComposite in2="SourceAlpha" operator="out"></feComposite></filter><path d="M99.97 338.75L368.99 39.22" id="b4dx9cjqzN" fill="none" stroke="white" filter="url(#shadow3325994)"></path></g><g><use xlink:href="#aXt2Rrytz" opacity="1" fill-opacity="0" stroke="#000000" stroke-width="10" stroke-opacity="1"></use></g></g></g><g><g><filter id="shadow12342893" x="295.89" y="-27.67" width="148.16" height="140.59" filterUnits="userSpaceOnUse" primitiveUnits="userSpaceOnUse"><feFlood></feFlood><feComposite in2="SourceAlpha" operator="in"></feComposite><feGaussianBlur stdDeviation="3.16"></feGaussianBlur><feOffset dx="20" dy="20" result="afterOffset"></feOffset><feFlood flood-color="#000000" flood-opacity="0.67"></feFlood><feComposite in2="afterOffset" operator="in"></feComposite><feMorphology operator="dilate" radius="5"></feMorphology><feComposite in2="SourceAlpha" operator="out"></feComposite></filter><path d="M374.05 42.92L359.93 32.59L345.89 22.33" id="b8bYylrDH" fill="none" stroke="white" filter="url(#shadow12342893)"></path></g><g><use xlink:href="#a5wPQLvMD" opacity="1" fill-opacity="0" stroke="#000000" stroke-width="10" stroke-opacity="1"></use></g></g></g><g><g><filter id="shadow14479476" x="12.99" y="311.38" width="124.94" height="124.45" filterUnits="userSpaceOnUse" primitiveUnits="userSpaceOnUse"><feFlood></feFlood><feComposite in2="SourceAlpha" operator="in"></feComposite><feGaussianBlur stdDeviation="3.16"></feGaussianBlur><feOffset dx="20" dy="20" result="afterOffset"></feOffset><feFlood flood-color="#000000" flood-opacity="0.67"></feFlood><feComposite in2="afterOffset" operator="in"></feComposite><feMorphology operator="dilate" radius="5"></feMorphology><feComposite in2="SourceAlpha" operator="out"></feComposite></filter><path d="M67.93 364.79L62.99 365.83L63.26 361.38" id="a3iMzNrzBA" fill="none" stroke="white" filter="url(#shadow14479476)"></path></g><g><use xlink:href="#agQVcm9CW" opacity="1" fill-opacity="0" stroke="#000000" stroke-width="10" stroke-opacity="1"></use></g></g></g></g></g></svg>