<?xml version="1.0" encoding="UTF-8" standalone="no"?>
<!DOCTYPE svg PUBLIC "-//W3C//DTD SVG 1.1//EN" "http://www.w3.org/Graphics/SVG/1.1/DTD/svg11.dtd">
<svg version="1.1" xmlns="http://www.w3.org/2000/svg" xmlns:xlink="http://www.w3.org/1999/xlink" preserveAspectRatio="xMidYMid meet" viewBox="0 0 100 100" width="100" height="100"><defs><path d="M100 50C100 77.6 77.6 100 50 100C22.4 100 0 77.6 0 50C0 22.4 22.4 0 50 0C77.6 0 100 22.4 100 50Z" id="aoumpXAI3"></path><path d="M54.9 60L35 70L35 50L35 30L54.9 40L74.81 50L54.9 60Z" id="f2twinADe3"></path></defs><g><g><g><use xlink:href="#aoumpXAI3" opacity="1" fill="#000000" fill-opacity="0.2"></use></g><g><g><filter id="shadow7652328" x="26" y="21" width="58.81" height="59" filterUnits="userSpaceOnUse" primitiveUnits="userSpaceOnUse"><feFlood></feFlood><feComposite in2="SourceAlpha" operator="in"></feComposite><feGaussianBlur stdDeviation="1"></feGaussianBlur><feOffset dx="1" dy="1" result="afterOffset"></feOffset><feFlood flood-color="#000000" flood-opacity="1"></feFlood><feComposite in2="afterOffset" operator="in"></feComposite><feMorphology operator="dilate" radius="1"></feMorphology><feComposite in2="SourceAlpha" operator="out"></feComposite></filter><path d="M54.9 60L35 70L35 50L35 30L54.9 40L74.81 50L54.9 60Z" id="f14uM4aJwu" fill="white" fill-opacity="1" filter="url(#shadow7652328)"></path></g><use xlink:href="#f2twinADe3" opacity="1" fill="#000000" fill-opacity="0.5"></use></g></g></g></svg>