<?xml version="1.0" encoding="UTF-8" standalone="no"?>
<!DOCTYPE svg PUBLIC "-//W3C//DTD SVG 1.1//EN" "http://www.w3.org/Graphics/SVG/1.1/DTD/svg11.dtd">
<svg version="1.1" xmlns="http://www.w3.org/2000/svg" xmlns:xlink="http://www.w3.org/1999/xlink" preserveAspectRatio="xMidYMid meet" viewBox="0 0 640 640" width="100" height="100"><defs><path d="M70 570L70 70L570 70L570 570L70 570ZM321.8 383.6L317.77 383.89L313.79 384.28L309.86 384.79L305.98 385.4L302.16 386.12L298.41 386.94L294.71 387.86L291.09 388.87L287.54 389.98L284.06 391.18L280.66 392.48L277.34 393.86L274.11 395.33L270.96 396.88L267.9 398.51L264.94 400.23L262.07 402.01L259.3 403.88L256.64 405.82L254.08 407.82L251.64 409.9L249.3 412.04L247.09 414.24L244.99 416.5L243.02 418.83L241.17 421.21L239.45 423.64L237.86 426.13L236.41 428.67L235.1 431.25L233.93 433.88L232.91 436.55L232.03 439.27L231.31 442.02L230.74 444.81L230.33 447.63L230.08 450.48L230 453.37L230.08 456.25L230.33 459.1L230.74 461.93L231.31 464.71L232.03 467.47L232.91 470.18L233.93 472.85L235.1 475.48L236.41 478.07L237.86 480.6L239.45 483.09L241.17 485.52L243.02 487.9L244.99 490.23L247.09 492.49L249.3 494.7L251.64 496.84L254.08 498.91L256.64 500.92L259.3 502.85L262.07 504.72L264.94 506.51L267.9 508.22L270.96 509.85L274.11 511.4L277.34 512.87L280.66 514.25L284.06 515.55L287.54 516.75L291.09 517.86L294.71 518.88L298.41 519.8L302.16 520.61L305.98 521.33L309.86 521.94L313.79 522.45L317.77 522.85L321.8 523.13L325.88 523.31L330 523.37L334.12 523.31L338.2 523.13L342.23 522.85L346.21 522.45L350.14 521.94L354.02 521.33L357.84 520.61L361.59 519.8L365.29 518.88L368.91 517.86L372.46 516.75L375.94 515.55L379.34 514.25L382.66 512.87L385.89 511.4L389.04 509.85L392.1 508.22L395.06 506.51L397.93 504.72L400.7 502.85L403.36 500.92L405.92 498.91L408.36 496.84L410.7 494.7L412.91 492.49L415.01 490.23L416.98 487.9L418.83 485.52L420.55 483.09L422.14 480.6L423.59 478.07L424.9 475.48L426.07 472.85L427.09 470.18L427.97 467.47L428.69 464.71L429.26 461.93L429.67 459.1L429.92 456.25L430 453.37L429.92 450.48L429.67 447.63L429.26 444.81L428.69 442.02L427.97 439.27L427.09 436.55L426.07 433.88L424.9 431.25L423.59 428.67L422.14 426.13L420.55 423.64L418.83 421.21L416.98 418.83L415.01 416.5L412.91 414.24L410.7 412.04L408.36 409.9L405.92 407.82L403.36 405.82L400.7 403.88L397.93 402.01L395.06 400.23L392.1 398.51L389.04 396.88L385.89 395.33L382.66 393.86L379.34 392.48L375.94 391.18L372.46 389.98L368.91 388.87L365.29 387.86L361.59 386.94L357.84 386.12L354.02 385.4L350.14 384.79L346.21 384.28L342.23 383.89L338.2 383.6L334.12 383.42L330 383.37L325.88 383.42L321.8 383.6ZM120 280L520 280L520 190L120 190L120 280ZM120 150L520 150L520 120L120 120L120 150Z" id="am6mrsqA"></path><radialGradient id="gradiente8CZVOCsb" gradientUnits="userSpaceOnUse" cx="223.07" cy="303.56" dx="600" dy="600" r="479.53"><stop style="stop-color: #a19c9c;stop-opacity: 1" offset="0%"></stop><stop style="stop-color: #010000;stop-opacity: 1" offset="100%"></stop></radialGradient></defs><g><g><g><g><filter id="shadow8243274" x="34" y="34" width="582" height="582" filterUnits="userSpaceOnUse" primitiveUnits="userSpaceOnUse"><feFlood></feFlood><feComposite in2="SourceAlpha" operator="in"></feComposite><feGaussianBlur stdDeviation="3.16"></feGaussianBlur><feOffset dx="10" dy="10" result="afterOffset"></feOffset><feFlood flood-color="#000000" flood-opacity="0.5"></feFlood><feComposite in2="afterOffset" operator="in"></feComposite><feMorphology operator="dilate" radius="1"></feMorphology><feComposite in2="SourceAlpha" operator="out"></feComposite></filter><path d="M70 570L70 70L570 70L570 570L70 570ZM321.8 383.6L317.77 383.89L313.79 384.28L309.86 384.79L305.98 385.4L302.16 386.12L298.41 386.94L294.71 387.86L291.09 388.87L287.54 389.98L284.06 391.18L280.66 392.48L277.34 393.86L274.11 395.33L270.96 396.88L267.9 398.51L264.94 400.23L262.07 402.01L259.3 403.88L256.64 405.82L254.08 407.82L251.64 409.9L249.3 412.04L247.09 414.24L244.99 416.5L243.02 418.83L241.17 421.21L239.45 423.64L237.86 426.13L236.41 428.67L235.1 431.25L233.93 433.88L232.91 436.55L232.03 439.27L231.31 442.02L230.74 444.81L230.33 447.63L230.08 450.48L230 453.37L230.08 456.25L230.33 459.1L230.74 461.93L231.31 464.71L232.03 467.47L232.91 470.18L233.93 472.85L235.1 475.48L236.41 478.07L237.86 480.6L239.45 483.09L241.17 485.52L243.02 487.9L244.99 490.23L247.09 492.49L249.3 494.7L251.64 496.84L254.08 498.91L256.64 500.92L259.3 502.85L262.07 504.72L264.94 506.51L267.9 508.22L270.96 509.85L274.11 511.4L277.34 512.87L280.66 514.25L284.06 515.55L287.54 516.75L291.09 517.86L294.71 518.88L298.41 519.8L302.16 520.61L305.98 521.33L309.86 521.94L313.79 522.45L317.77 522.85L321.8 523.13L325.88 523.31L330 523.37L334.12 523.31L338.2 523.13L342.23 522.85L346.21 522.45L350.14 521.94L354.02 521.33L357.84 520.61L361.59 519.8L365.29 518.88L368.91 517.86L372.46 516.75L375.94 515.55L379.34 514.25L382.66 512.87L385.89 511.4L389.04 509.85L392.1 508.22L395.06 506.51L397.93 504.72L400.7 502.85L403.36 500.92L405.92 498.91L408.36 496.84L410.7 494.7L412.91 492.49L415.01 490.23L416.98 487.9L418.83 485.52L420.55 483.09L422.14 480.6L423.59 478.07L424.9 475.48L426.07 472.85L427.09 470.18L427.97 467.47L428.69 464.71L429.26 461.93L429.67 459.1L429.92 456.25L430 453.37L429.92 450.48L429.67 447.63L429.26 444.81L428.69 442.02L427.97 439.27L427.09 436.55L426.07 433.88L424.9 431.25L423.59 428.67L422.14 426.13L420.55 423.64L418.83 421.21L416.98 418.83L415.01 416.5L412.91 414.24L410.7 412.04L408.36 409.9L405.92 407.82L403.36 405.82L400.7 403.88L397.93 402.01L395.06 400.23L392.1 398.51L389.04 396.88L385.89 395.33L382.66 393.86L379.34 392.48L375.94 391.18L372.46 389.98L368.91 388.87L365.29 387.86L361.59 386.94L357.84 386.12L354.02 385.4L350.14 384.79L346.21 384.28L342.23 383.89L338.2 383.6L334.12 383.42L330 383.37L325.88 383.42L321.8 383.6ZM120 280L520 280L520 190L120 190L120 280ZM120 150L520 150L520 120L120 120L120 150Z" id="akHreKTn5" fill="white" fill-opacity="1" filter="url(#shadow8243274)"></path></g><use xlink:href="#am6mrsqA" opacity="1" fill="url(#gradiente8CZVOCsb)"></use></g></g></g></svg>