<?xml version="1.0" encoding="UTF-8" standalone="no"?>
<!DOCTYPE svg PUBLIC "-//W3C//DTD SVG 1.1//EN" "http://www.w3.org/Graphics/SVG/1.1/DTD/svg11.dtd">
<svg version="1.1" xmlns="http://www.w3.org/2000/svg" xmlns:xlink="http://www.w3.org/1999/xlink" preserveAspectRatio="xMidYMid meet" viewBox="0 0 400 400" width="400" height="400"><defs><path d="M51.28 66.67L344.87 66.67L344.87 367.31L51.28 367.31L51.28 66.67Z" id="a2zqZ2uw0g"></path><path d="M235.26 144.17C235.26 165.92 216.01 183.59 192.31 183.59C168.6 183.59 149.36 165.92 149.36 144.17C149.36 122.41 168.6 104.74 192.31 104.74C216.01 104.74 235.26 122.41 235.26 144.17Z" id="b1QX5x6DeT"></path><path d="M83.33 240.64L308.97 240.64L308.97 247.69L83.33 247.69L83.33 240.64Z" id="b3qxMDiP8"></path><path d="M83.33 270.45L308.97 270.45L308.97 277.5L83.33 277.5L83.33 270.45Z" id="d6qkZPxc0H"></path><path d="M83.33 305.38L308.97 305.38L308.97 312.44L83.33 312.44L83.33 305.38Z" id="b31q4pDMXb"></path></defs><g><g><g><use xlink:href="#a2zqZ2uw0g" opacity="1" fill="#4d4d4d" fill-opacity="1"></use><g><filter id="shadow15383875" x="42.28" y="57.67" width="312.59" height="319.64" filterUnits="userSpaceOnUse" primitiveUnits="userSpaceOnUse"><feFlood></feFlood><feComposite in2="SourceAlpha" operator="out"></feComposite><feGaussianBlur stdDeviation="1"></feGaussianBlur><feOffset dx="1" dy="1" result="afterOffset"></feOffset><feFlood flood-color="#ffffff" flood-opacity="0.8"></feFlood><feComposite in2="afterOffset" operator="in"></feComposite><feMorphology operator="dilate" radius="1"></feMorphology><feComposite in2="SourceAlpha" operator="in"></feComposite></filter><path d="M51.28 66.67L344.87 66.67L344.87 367.31L51.28 367.31L51.28 66.67Z" id="b7r7NvkvqC" fill="white" fill-opacity="1" filter="url(#shadow15383875)"></path></g></g><g><use xlink:href="#b1QX5x6DeT" opacity="1" fill="#ffffff" fill-opacity="1"></use></g><g><use xlink:href="#b3qxMDiP8" opacity="1" fill="#ffffff" fill-opacity="1"></use></g><g><use xlink:href="#d6qkZPxc0H" opacity="1" fill="#ffffff" fill-opacity="1"></use></g><g><use xlink:href="#b31q4pDMXb" opacity="1" fill="#ffffff" fill-opacity="1"></use></g></g></g></svg>