<?xml version="1.0" encoding="UTF-8" standalone="no"?>
<!DOCTYPE svg PUBLIC "-//W3C//DTD SVG 1.1//EN" "http://www.w3.org/Graphics/SVG/1.1/DTD/svg11.dtd">
<svg version="1.1" xmlns="http://www.w3.org/2000/svg" xmlns:xlink="http://www.w3.org/1999/xlink" preserveAspectRatio="xMidYMid meet" viewBox="0 0 100 100" width="100" height="100"><defs><path d="M100 50C100 77.6 77.6 100 50 100C22.4 100 0 77.6 0 50C0 22.4 22.4 0 50 0C77.6 0 100 22.4 100 50Z" id="b8fEJThjQ"></path><path d="M92.01 48.97L53.51 15L15 48.97L39.41 48.97L39.41 85L67.66 85L67.66 48.97L92.01 48.97Z" id="a40Y49264"></path></defs><g><g><g><use xlink:href="#b8fEJThjQ" opacity="1" fill="#000000" fill-opacity="0.2"></use></g><g><g><filter id="shadow7468771" x="6" y="6" width="96.01" height="89" filterUnits="userSpaceOnUse" primitiveUnits="userSpaceOnUse"><feFlood></feFlood><feComposite in2="SourceAlpha" operator="in"></feComposite><feGaussianBlur stdDeviation="1"></feGaussianBlur><feOffset dx="1" dy="1" result="afterOffset"></feOffset><feFlood flood-color="#000000" flood-opacity="1"></feFlood><feComposite in2="afterOffset" operator="in"></feComposite><feMorphology operator="dilate" radius="1"></feMorphology><feComposite in2="SourceAlpha" operator="out"></feComposite></filter><path d="M92.01 48.97L53.51 15L15 48.97L39.41 48.97L39.41 85L67.66 85L67.66 48.97L92.01 48.97Z" id="ama2vMA7K" fill="white" fill-opacity="1" filter="url(#shadow7468771)"></path></g><use xlink:href="#a40Y49264" opacity="1" fill="#000000" fill-opacity="0.5"></use></g></g></g></svg>